# xmcd CD database file
# Copyright (C) 1997 Ti Kan
# 
# Track frame offsets:
#     150
#     16262
#     30927
#     60262
#     82887
#     108137
#     121762
#     153112
#     166062
#     192280
#     215492
# 
# Disc length: 3198 seconds
# 
# Revision: 1
# Processed by: cddbd v1.4b41PL1 Copyright (c) Steve Scherf et al.
# Submitted via: DiscPlay 4.0.3
# 
DISCID=6e0c7c0b
DTITLE=Valerie Wellington - Life In The Big City
DYEAR=1900
DGENRE=
TTITLE0=Let The Good Times Roll
TTITLE1=Kitchen Man
TTITLE2=Sparrow
TTITLE3=How Blue Can You Get?
TTITLE4=Baby What You Want Me To Do
TTITLE5=Iyannatta (Trouble In Mind)
TTITLE6=Whole Lot Of Shakin' Going On
TTITLE7=Got What It Takes (Stingy Ginny)
TTITLE8=Steal Away
TTITLE9=Fool For You
TTITLE10=Wasted Life Blues
EXTD=
EXTT0=
EXTT1=
EXTT2=
EXTT3=
EXTT4=
EXTT5=
EXTT6=
EXTT7=
EXTT8=
EXTT9=
EXTT10=
PLAYORDER=
